<svg width="184" height="41" viewBox="0 0 184 41" fill="none" xmlns="http://www.w3.org/2000/svg">
<g clip-path="url(#clip0_114_2650)">
<path d="M33.992 20.3691C33.992 28.9602 27.0276 35.9246 18.4365 35.9246C9.84537 35.9246 2.88091 28.9602 2.88091 20.3691C2.88091 11.778 9.84537 4.81353 18.4365 4.81353C27.0276 4.81353 33.992 11.778 33.992 20.3691Z" stroke="#FAFAFA" stroke-width="4.44444"/>
<path d="M24.1432 20.3336C24.1432 23.5049 21.5723 26.0758 18.401 26.0758C15.2296 26.0758 12.6587 23.5049 12.6587 20.3336C12.6587 17.1622 15.2296 14.5914 18.401 14.5914C21.5723 14.5914 24.1432 17.1622 24.1432 20.3336Z" stroke="#FAFAFA" stroke-width="4.44444"/>
<path d="M184.468 25.275C184.468 26.2087 184.29 27.0924 183.934 27.9261C183.579 28.7486 183.089 29.4656 182.467 30.077C181.856 30.6883 181.133 31.1719 180.299 31.5276C179.477 31.8833 178.593 32.0611 177.648 32.0611C176.804 32.0611 175.992 31.9166 175.214 31.6276C174.436 31.3275 173.73 30.894 173.096 30.3271C172.474 30.894 171.774 31.3275 170.996 31.6276C170.229 31.9166 169.417 32.0611 168.561 32.0611C167.616 32.0611 166.733 31.8833 165.91 31.5276C165.088 31.1719 164.365 30.6883 163.743 30.077C163.131 29.4656 162.648 28.7486 162.292 27.9261C161.936 27.0924 161.758 26.2087 161.758 25.275V13.9036H166.31V25.275C166.31 25.5862 166.366 25.8808 166.477 26.1587C166.599 26.4254 166.76 26.6644 166.961 26.8756C167.172 27.0757 167.411 27.2369 167.677 27.3592C167.955 27.4703 168.25 27.5259 168.561 27.5259C168.872 27.5259 169.167 27.4703 169.445 27.3592C169.723 27.2369 169.967 27.0757 170.179 26.8756C170.39 26.6644 170.551 26.4254 170.662 26.1587C170.784 25.8808 170.845 25.5862 170.845 25.275V13.9036H175.381V25.275C175.381 25.5862 175.442 25.8808 175.564 26.1587C175.686 26.4254 175.848 26.6644 176.048 26.8756C176.259 27.0757 176.498 27.2369 176.765 27.3592C177.042 27.4703 177.337 27.5259 177.648 27.5259C177.96 27.5259 178.254 27.4703 178.532 27.3592C178.81 27.2369 179.049 27.0757 179.249 26.8756C179.46 26.6644 179.627 26.4254 179.749 26.1587C179.871 25.8808 179.933 25.5862 179.933 25.275V13.9036H184.468V25.275Z" fill="#FAFAFA"/>
<path d="M159.407 22.6407C159.407 23.9746 159.168 25.2196 158.69 26.3756C158.212 27.5205 157.562 28.5154 156.74 29.3602C155.917 30.1938 154.95 30.8552 153.838 31.3443C152.738 31.8223 151.554 32.0613 150.287 32.0613C149.031 32.0613 147.847 31.8223 146.735 31.3443C145.635 30.8552 144.668 30.1938 143.834 29.3602C143.012 28.5154 142.361 27.5205 141.883 26.3756C141.405 25.2196 141.166 23.9746 141.166 22.6407C141.166 21.2846 141.405 20.0285 141.883 18.8725C142.361 17.7164 143.012 16.7216 143.834 15.8879C144.668 15.0431 145.635 14.3817 146.735 13.9037C147.847 13.4258 149.031 13.1868 150.287 13.1868C151.554 13.1868 152.738 13.4146 153.838 13.8704C154.95 14.315 155.917 14.9542 156.74 15.7879C157.562 16.6104 158.212 17.6053 158.69 18.7724C159.168 19.9285 159.407 21.2179 159.407 22.6407ZM154.822 22.6407C154.822 21.9071 154.7 21.2457 154.455 20.6565C154.222 20.0563 153.9 19.545 153.488 19.1226C153.077 18.6891 152.593 18.3611 152.038 18.1388C151.493 17.9054 150.909 17.7887 150.287 17.7887C149.664 17.7887 149.075 17.9054 148.52 18.1388C147.975 18.3611 147.497 18.6891 147.086 19.1226C146.685 19.545 146.369 20.0563 146.135 20.6565C145.902 21.2457 145.785 21.9071 145.785 22.6407C145.785 23.3299 145.902 23.969 146.135 24.5582C146.369 25.1473 146.685 25.6586 147.086 26.0921C147.497 26.5257 147.975 26.8702 148.52 27.1259C149.075 27.3705 149.664 27.4927 150.287 27.4927C150.909 27.4927 151.493 27.376 152.038 27.1426C152.593 26.9091 153.077 26.5812 153.488 26.1588C153.9 25.7364 154.222 25.2251 154.455 24.6249C154.7 24.0246 154.822 23.3632 154.822 22.6407Z" fill="#FAFAFA"/>
<path d="M138.665 31.7277H134.08V6.76733H138.665V31.7277Z" fill="#FAFAFA"/>
<path d="M120.141 31.7278H115.356V7.81787H132.096V12.6032H120.141V17.3885H127.311V22.1738H120.141V31.7278Z" fill="#FAFAFA"/>
<path d="M111.387 31.7277H106.802V6.76733H111.387V31.7277Z" fill="#FAFAFA"/>
<path d="M103.317 31.7278H102.217L100.449 29.2768C100.016 29.6659 99.5547 30.0327 99.0656 30.3773C98.5876 30.7107 98.0818 31.0053 97.5483 31.261C97.0147 31.5055 96.4645 31.7 95.8976 31.8445C95.3418 31.989 94.7749 32.0613 94.1969 32.0613C92.9408 32.0613 91.757 31.8501 90.6454 31.4277C89.5449 31.0053 88.5779 30.3939 87.7442 29.5936C86.9216 28.7822 86.2714 27.7928 85.7934 26.6257C85.3154 25.4585 85.0764 24.1302 85.0764 22.6407C85.0764 21.2512 85.3154 19.9785 85.7934 18.8224C86.2714 17.6553 86.9216 16.6549 87.7442 15.8212C88.5779 14.9875 89.5449 14.3428 90.6454 13.8871C91.757 13.4202 92.9408 13.1868 94.1969 13.1868C94.7749 13.1868 95.3474 13.259 95.9143 13.4035C96.4812 13.548 97.0314 13.7481 97.5649 14.0038C98.0985 14.2594 98.6043 14.5596 99.0822 14.9041C99.5713 15.2487 100.027 15.6211 100.449 16.0213L102.217 13.9037H103.317V31.7278ZM98.7321 22.6407C98.7321 22.0182 98.6098 21.418 98.3653 20.84C98.1318 20.2508 97.8095 19.7339 97.3982 19.2893C96.9869 18.8336 96.5034 18.4723 95.9476 18.2055C95.4029 17.9276 94.8194 17.7887 94.1969 17.7887C93.5744 17.7887 92.9853 17.8943 92.4295 18.1055C91.8848 18.3167 91.4068 18.6279 90.9955 19.0392C90.5954 19.4505 90.2786 19.9618 90.0452 20.5732C89.8117 21.1734 89.695 21.8626 89.695 22.6407C89.695 23.4188 89.8117 24.1135 90.0452 24.7249C90.2786 25.3252 90.5954 25.8309 90.9955 26.2422C91.4068 26.6535 91.8848 26.9647 92.4295 27.1759C92.9853 27.3871 93.5744 27.4927 94.1969 27.4927C94.8194 27.4927 95.4029 27.3593 95.9476 27.0926C96.5034 26.8147 96.9869 26.4534 97.3982 26.0088C97.8095 25.553 98.1318 25.0361 98.3653 24.4581C98.6098 23.869 98.7321 23.2632 98.7321 22.6407Z" fill="#FAFAFA"/>
<path d="M83.5091 22.6407C83.5091 23.9746 83.2701 25.2196 82.7922 26.3756C82.3142 27.5205 81.6639 28.5154 80.8413 29.3602C80.0188 30.1938 79.0517 30.8552 77.9401 31.3443C76.8397 31.8223 75.6558 32.0613 74.3887 32.0613C73.1326 32.0613 71.9487 31.8223 70.8372 31.3443C69.7367 30.8552 68.7696 30.1938 67.936 29.3602C67.1134 28.5154 66.4631 27.5205 65.9852 26.3756C65.5072 25.2196 65.2682 23.9746 65.2682 22.6407C65.2682 21.2846 65.5072 20.0285 65.9852 18.8725C66.4631 17.7164 67.1134 16.7216 67.936 15.8879C68.7696 15.0431 69.7367 14.3817 70.8372 13.9037C71.9487 13.4258 73.1326 13.1868 74.3887 13.1868C75.6558 13.1868 76.8397 13.4146 77.9401 13.8704C79.0517 14.315 80.0188 14.9542 80.8413 15.7879C81.6639 16.6104 82.3142 17.6053 82.7922 18.7724C83.2701 19.9285 83.5091 21.2179 83.5091 22.6407ZM78.9239 22.6407C78.9239 21.9071 78.8016 21.2457 78.5571 20.6565C78.3236 20.0563 78.0013 19.545 77.59 19.1226C77.1787 18.6891 76.6952 18.3611 76.1394 18.1388C75.5947 17.9054 75.0111 17.7887 74.3887 17.7887C73.7662 17.7887 73.177 17.9054 72.6213 18.1388C72.0766 18.3611 71.5986 18.6891 71.1873 19.1226C70.7872 19.545 70.4704 20.0563 70.2369 20.6565C70.0035 21.2457 69.8868 21.9071 69.8868 22.6407C69.8868 23.3299 70.0035 23.969 70.2369 24.5582C70.4704 25.1473 70.7872 25.6586 71.1873 26.0921C71.5986 26.5257 72.0766 26.8702 72.6213 27.1259C73.177 27.3705 73.7662 27.4927 74.3887 27.4927C75.0111 27.4927 75.5947 27.376 76.1394 27.1426C76.6952 26.9091 77.1787 26.5812 77.59 26.1588C78.0013 25.7364 78.3236 25.2251 78.5571 24.6249C78.8016 24.0246 78.9239 23.3632 78.9239 22.6407Z" fill="#FAFAFA"/>
<path d="M63.0506 29.3101C61.939 30.2549 60.6996 30.983 59.3324 31.4943C57.9651 31.9945 56.5423 32.2446 55.0639 32.2446C53.9301 32.2446 52.8352 32.0946 51.7792 31.7945C50.7344 31.5054 49.7562 31.0942 48.8447 30.5606C47.9332 30.0159 47.0995 29.3712 46.3436 28.6265C45.5878 27.8706 44.9431 27.0369 44.4095 26.1254C43.8759 25.2028 43.4591 24.2135 43.159 23.1575C42.87 22.1015 42.7255 21.0066 42.7255 19.8728C42.7255 18.739 42.87 17.6497 43.159 16.6048C43.4591 15.5599 43.8759 14.5817 44.4095 13.6702C44.9431 12.7476 45.5878 11.914 46.3436 11.1692C47.0995 10.4133 47.9332 9.76862 48.8447 9.23506C49.7562 8.7015 50.7344 8.29022 51.7792 8.00121C52.8352 7.70109 53.9301 7.55103 55.0639 7.55103C56.5423 7.55103 57.9651 7.80669 59.3324 8.31801C60.6996 8.81822 61.939 9.54074 63.0506 10.4856L60.5496 14.654C59.827 13.9203 58.9933 13.3479 58.0485 12.9366C57.1037 12.5142 56.1088 12.303 55.0639 12.303C54.0191 12.303 53.0353 12.5031 52.1127 12.9033C51.2012 13.3034 50.4009 13.8481 49.7117 14.5373C49.0225 15.2153 48.4779 16.0157 48.0777 16.9383C47.6775 17.8498 47.4774 18.8279 47.4774 19.8728C47.4774 20.9288 47.6775 21.9181 48.0777 22.8407C48.4779 23.7633 49.0225 24.5692 49.7117 25.2584C50.4009 25.9476 51.2012 26.4922 52.1127 26.8924C53.0353 27.2926 54.0191 27.4927 55.0639 27.4927C55.6642 27.4927 56.2478 27.4204 56.8147 27.2759C57.3816 27.1314 57.9207 26.9313 58.432 26.6757V19.8728H63.0506V29.3101Z" fill="#FAFAFA"/>
</g>
<defs>
<clipPath id="clip0_114_2650">
<rect width="183" height="40" fill="white" transform="translate(0.5 0.5)"/>
</clipPath>
</defs>
</svg>
